<mxfile host="app.diagrams.net" modified="2022-02-21T09:38:49.980Z" agent="5.0 (Macintosh; Intel Mac OS X 10_15_7) AppleWebKit/605.1.15 (KHTML, like Gecko) Version/14.1.2 Safari/605.1.15" etag="vIAADpnMgmn4K7NGb_9h" version="16.6.1" type="github">
  <diagram id="A5qihpK-VS0MfWuhH4ri" name="Page-1">
    <mxGraphModel dx="945" dy="558" grid="1" gridSize="10" guides="1" tooltips="1" connect="1" arrows="1" fold="1" page="1" pageScale="1" pageWidth="827" pageHeight="1169" math="0" shadow="0">
      <root>
        <mxCell id="0" />
        <mxCell id="1" parent="0" />
        <mxCell id="tR_wNsyd83giTS37NSJW-1" style="edgeStyle=orthogonalEdgeStyle;rounded=0;orthogonalLoop=1;jettySize=auto;html=1;" parent="1" source="tR_wNsyd83giTS37NSJW-2" target="tR_wNsyd83giTS37NSJW-3" edge="1">
          <mxGeometry relative="1" as="geometry" />
        </mxCell>
        <mxCell id="tR_wNsyd83giTS37NSJW-8" style="edgeStyle=orthogonalEdgeStyle;rounded=0;orthogonalLoop=1;jettySize=auto;html=1;" parent="1" source="tR_wNsyd83giTS37NSJW-2" target="tR_wNsyd83giTS37NSJW-5" edge="1">
          <mxGeometry relative="1" as="geometry" />
        </mxCell>
        <mxCell id="tR_wNsyd83giTS37NSJW-11" style="edgeStyle=orthogonalEdgeStyle;rounded=0;orthogonalLoop=1;jettySize=auto;html=1;" parent="1" source="tR_wNsyd83giTS37NSJW-2" target="tR_wNsyd83giTS37NSJW-9" edge="1">
          <mxGeometry relative="1" as="geometry" />
        </mxCell>
        <mxCell id="tR_wNsyd83giTS37NSJW-2" value="Mentor" style="shape=umlActor;verticalLabelPosition=bottom;verticalAlign=top;html=1;outlineConnect=0;" parent="1" vertex="1">
          <mxGeometry x="210" y="230" width="30" height="60" as="geometry" />
        </mxCell>
        <mxCell id="tR_wNsyd83giTS37NSJW-3" value="Se connecter" style="ellipse;whiteSpace=wrap;html=1;" parent="1" vertex="1">
          <mxGeometry x="220" y="80" width="140" height="60" as="geometry" />
        </mxCell>
        <mxCell id="tR_wNsyd83giTS37NSJW-6" style="edgeStyle=orthogonalEdgeStyle;rounded=0;orthogonalLoop=1;jettySize=auto;html=1;" parent="1" source="tR_wNsyd83giTS37NSJW-4" target="tR_wNsyd83giTS37NSJW-2" edge="1">
          <mxGeometry relative="1" as="geometry" />
        </mxCell>
        <mxCell id="tR_wNsyd83giTS37NSJW-4" value="Mentoré" style="shape=umlActor;verticalLabelPosition=bottom;verticalAlign=top;html=1;outlineConnect=0;" parent="1" vertex="1">
          <mxGeometry x="210" y="460" width="30" height="60" as="geometry" />
        </mxCell>
        <mxCell id="tR_wNsyd83giTS37NSJW-5" value="S&#39;inscrire&amp;nbsp;" style="ellipse;whiteSpace=wrap;html=1;" parent="1" vertex="1">
          <mxGeometry x="390" y="80" width="130" height="60" as="geometry" />
        </mxCell>
        <mxCell id="tR_wNsyd83giTS37NSJW-7" value="Attribuer dee mentors aux mentorés&amp;nbsp;" style="ellipse;whiteSpace=wrap;html=1;" parent="1" vertex="1">
          <mxGeometry x="520" y="360" width="206" height="60" as="geometry" />
        </mxCell>
        <mxCell id="tR_wNsyd83giTS37NSJW-9" value="Définir un contrat de mentorat&amp;nbsp;" style="ellipse;whiteSpace=wrap;html=1;" parent="1" vertex="1">
          <mxGeometry x="540" y="80" width="220" height="60" as="geometry" />
        </mxCell>
        <mxCell id="tR_wNsyd83giTS37NSJW-10" value="S&#39;inscrire&amp;nbsp;" style="ellipse;whiteSpace=wrap;html=1;" parent="1" vertex="1">
          <mxGeometry x="620" y="180" width="170" height="60" as="geometry" />
        </mxCell>
      </root>
    </mxGraphModel>
  </diagram>
</mxfile>
